<svg width="1200" height="760" viewBox="0 0 1200 760" fill="none" xmlns="http://www.w3.org/2000/svg">
  <rect width="1200" height="760" fill="#F7F6F2"/>
  <text x="72" y="76" fill="#14213D" font-family="Arial, Helvetica, sans-serif" font-size="34" font-weight="700">AI Application Stack Overview</text>
  <text x="72" y="112" fill="#475569" font-family="Arial, Helvetica, sans-serif" font-size="18">A practical application architecture: product layer, orchestration layer, retrieval layer, and governance loop</text>

  <rect x="86" y="162" width="1028" height="100" rx="22" fill="#FFFDF8" stroke="#D6D3D1" stroke-width="2"/>
  <text x="118" y="202" fill="#1F2937" font-family="Arial, Helvetica, sans-serif" font-size="18" font-weight="700">Product Layer</text>
  <rect x="118" y="220" width="190" height="24" rx="12" fill="#E0F2FE"/>
  <text x="213" y="237" text-anchor="middle" fill="#0C4A6E" font-family="Arial, Helvetica, sans-serif" font-size="14">Web / Mobile UI</text>
  <rect x="328" y="220" width="220" height="24" rx="12" fill="#E0F2FE"/>
  <text x="438" y="237" text-anchor="middle" fill="#0C4A6E" font-family="Arial, Helvetica, sans-serif" font-size="14">Prompt Templates</text>
  <rect x="568" y="220" width="230" height="24" rx="12" fill="#E0F2FE"/>
  <text x="683" y="237" text-anchor="middle" fill="#0C4A6E" font-family="Arial, Helvetica, sans-serif" font-size="14">Conversation State</text>
  <rect x="818" y="220" width="252" height="24" rx="12" fill="#E0F2FE"/>
  <text x="944" y="237" text-anchor="middle" fill="#0C4A6E" font-family="Arial, Helvetica, sans-serif" font-size="14">User Feedback &amp; Metrics</text>

  <rect x="86" y="300" width="1028" height="150" rx="22" fill="#FCFCFD" stroke="#CBD5E1" stroke-width="2"/>
  <text x="118" y="340" fill="#1F2937" font-family="Arial, Helvetica, sans-serif" font-size="18" font-weight="700">AI Orchestration Layer</text>
  <rect x="118" y="364" width="230" height="58" rx="16" fill="#1D3557"/>
  <text x="233" y="398" text-anchor="middle" fill="white" font-family="Arial, Helvetica, sans-serif" font-size="22" font-weight="700">Gateway / API</text>
  <rect x="382" y="364" width="230" height="58" rx="16" fill="#457B9D"/>
  <text x="497" y="398" text-anchor="middle" fill="white" font-family="Arial, Helvetica, sans-serif" font-size="22" font-weight="700">Agent Runtime</text>
  <rect x="646" y="364" width="200" height="58" rx="16" fill="#2A9D8F"/>
  <text x="746" y="398" text-anchor="middle" fill="white" font-family="Arial, Helvetica, sans-serif" font-size="22" font-weight="700">Tool Router</text>
  <rect x="880" y="364" width="190" height="58" rx="16" fill="#E76F51"/>
  <text x="975" y="398" text-anchor="middle" fill="white" font-family="Arial, Helvetica, sans-serif" font-size="22" font-weight="700">LLM Provider</text>

  <rect x="86" y="488" width="492" height="180" rx="22" fill="#F0FDF4" stroke="#86EFAC" stroke-width="2"/>
  <text x="118" y="528" fill="#14532D" font-family="Arial, Helvetica, sans-serif" font-size="18" font-weight="700">Knowledge / Retrieval Layer</text>
  <rect x="118" y="552" width="140" height="52" rx="14" fill="#BBF7D0"/>
  <text x="188" y="584" text-anchor="middle" fill="#14532D" font-family="Arial, Helvetica, sans-serif" font-size="20" font-weight="700">Docs</text>
  <rect x="278" y="552" width="140" height="52" rx="14" fill="#BBF7D0"/>
  <text x="348" y="584" text-anchor="middle" fill="#14532D" font-family="Arial, Helvetica, sans-serif" font-size="20" font-weight="700">Embeddings</text>
  <rect x="438" y="552" width="108" height="52" rx="14" fill="#BBF7D0"/>
  <text x="492" y="584" text-anchor="middle" fill="#14532D" font-family="Arial, Helvetica, sans-serif" font-size="20" font-weight="700">Rerank</text>
  <text x="118" y="636" fill="#166534" font-family="Arial, Helvetica, sans-serif" font-size="16">Chunking, metadata, access control, freshness, and citation grounding all live here.</text>

  <rect x="622" y="488" width="492" height="180" rx="22" fill="#FFF7ED" stroke="#FDBA74" stroke-width="2"/>
  <text x="654" y="528" fill="#9A3412" font-family="Arial, Helvetica, sans-serif" font-size="18" font-weight="700">Governance / Production Layer</text>
  <rect x="654" y="552" width="132" height="52" rx="14" fill="#FED7AA"/>
  <text x="720" y="584" text-anchor="middle" fill="#9A3412" font-family="Arial, Helvetica, sans-serif" font-size="18" font-weight="700">Tracing</text>
  <rect x="806" y="552" width="132" height="52" rx="14" fill="#FED7AA"/>
  <text x="872" y="584" text-anchor="middle" fill="#9A3412" font-family="Arial, Helvetica, sans-serif" font-size="18" font-weight="700">Eval Set</text>
  <rect x="958" y="552" width="124" height="52" rx="14" fill="#FED7AA"/>
  <text x="1020" y="584" text-anchor="middle" fill="#9A3412" font-family="Arial, Helvetica, sans-serif" font-size="18" font-weight="700">Cost Guard</text>
  <text x="654" y="636" fill="#9A3412" font-family="Arial, Helvetica, sans-serif" font-size="16">Quality gates, latency budgets, hallucination review, abuse controls, and token spend monitoring.</text>

  <path d="M600 262V300" stroke="#0F172A" stroke-width="4" stroke-linecap="round"/>
  <path d="M600 450V488" stroke="#0F172A" stroke-width="4" stroke-linecap="round"/>
  <path d="M746 422V488" stroke="#0F172A" stroke-width="4" stroke-linecap="round"/>
  <path d="M436 422V488" stroke="#0F172A" stroke-width="4" stroke-linecap="round"/>
</svg>
